<?xml version="1.0" standalone="no"?>
<!DOCTYPE svg PUBLIC "-//W3C//DTD SVG 20010904//EN"
 "http://www.w3.org/TR/2001/REC-SVG-20010904/DTD/svg10.dtd">
<svg version="1.0" xmlns="http://www.w3.org/2000/svg"
 width="500.000000pt" height="500.000000pt" viewBox="0 0 500.000000 500.000000"
 preserveAspectRatio="xMidYMid meet">

<g transform="translate(0.000000,500.000000) scale(0.100000,-0.100000)"
fill="#ffffff" stroke="none">
<path d="M1110 3314 c-218 -57 -399 -240 -455 -459 -19 -76 -19 -224 0 -300
59 -226 232 -402 452 -459 79 -21 237 -21 316 0 130 34 259 119 338 224 51 67
103 176 118 248 16 75 14 217 -4 287 -56 221 -239 404 -460 460 -74 19 -232
19 -305 -1z"/>
<path d="M3390 2705 l0 -625 385 -2 c212 -2 429 -3 483 -3 l97 0 3 103 3 102
-331 0 -330 0 0 135 0 135 185 0 185 0 0 75 0 75 -185 0 -185 0 0 105 0 105
310 0 310 0 0 210 0 210 -465 0 -465 0 0 -625z"/>
<path d="M2020 2700 l0 -620 583 -2 c320 -2 599 -1 620 2 l38 5 -116 115 c-64
63 -144 147 -177 185 -34 39 20 -11 120 -110 l182 -180 0 613 c0 336 -3 612
-8 612 -4 0 -144 -137 -312 -305 l-305 -305 -305 305 c-168 168 -308 305 -313
305 -4 0 -7 -279 -7 -620z"/>
<path d="M750 1963 c-75 -30 -111 -134 -76 -218 42 -99 203 -100 249 -2 33 69
13 158 -44 200 -27 19 -102 31 -129 20z m112 -35 c32 -16 51 -67 46 -126 -4
-47 -10 -60 -37 -84 -46 -42 -102 -39 -147 6 -30 30 -34 40 -34 88 0 109 80
164 172 116z"/>
<path d="M2340 1957 c-13 -7 -31 -25 -40 -40 -28 -50 12 -90 113 -112 29 -6
67 -38 67 -55 0 -25 -50 -60 -85 -60 -35 0 -85 35 -85 60 0 5 -4 10 -10 10 -5
0 -10 -11 -10 -24 0 -39 43 -66 105 -66 71 0 105 26 105 80 0 47 -21 64 -101
85 -64 17 -84 35 -75 68 13 52 106 56 135 6 17 -31 31 -38 31 -15 0 60 -85 96
-150 63z"/>
<path d="M2730 1952 c-86 -43 -95 -197 -15 -260 54 -43 159 -22 190 38 19 36
19 40 1 40 -8 0 -17 -9 -21 -20 -16 -49 -85 -73 -139 -49 -51 24 -73 127 -40
190 32 63 126 72 167 18 30 -41 53 -39 32 2 -29 55 -110 74 -175 41z"/>
<path d="M1000 1815 l0 -146 90 3 c51 2 90 7 90 13 0 6 -35 12 -77 15 l-78 5
-3 128 c-4 179 -22 164 -22 -18z"/>
<path d="M1232 1818 l3 -143 71 1 c125 1 167 38 167 146 0 102 -42 138 -166
138 l-78 0 3 -142z m182 93 c47 -45 43 -161 -7 -196 -14 -9 -45 -15 -84 -15
l-63 0 0 121 0 121 65 -4 c50 -3 70 -9 89 -27z"/>
<path d="M1650 1816 c0 -133 7 -173 24 -130 3 9 6 64 6 122 l1 107 47 -120
c29 -72 53 -120 61 -120 9 0 32 47 60 120 l46 120 5 -119 c3 -83 9 -121 18
-124 9 -3 12 30 12 143 0 146 0 146 -22 143 -19 -2 -30 -23 -68 -120 -25 -65
-47 -118 -50 -118 -3 0 -26 53 -51 118 -37 93 -51 118 -68 120 -21 3 -21 1
-21 -142z"/>
<path d="M2002 1839 c3 -118 4 -121 31 -145 22 -19 39 -24 83 -24 48 0 60 4
85 29 29 29 29 31 29 146 0 89 -3 116 -12 113 -9 -3 -14 -38 -16 -116 -3 -106
-4 -112 -29 -132 -36 -28 -88 -26 -118 5 -24 23 -25 31 -25 135 0 94 -2 110
-16 110 -14 0 -15 -16 -12 -121z"/>
<path d="M2570 1814 c0 -112 3 -145 13 -142 9 3 13 44 15 146 2 122 0 142 -13
142 -13 0 -15 -22 -15 -146z"/>
<path d="M3092 1818 l3 -143 99 0 c71 0 101 4 104 13 3 9 -19 12 -87 12 l-91
0 0 55 0 55 80 0 c47 0 80 4 80 10 0 6 -28 10 -64 10 -91 0 -96 3 -96 61 l0
49 85 0 c50 0 85 4 85 10 0 6 -40 10 -100 10 l-101 0 3 -142z"/>
<path d="M3330 1950 c0 -16 91 -264 101 -275 16 -17 35 17 83 148 25 71 46
131 46 133 0 2 -6 4 -14 4 -8 0 -30 -46 -56 -121 -24 -66 -46 -117 -50 -112
-4 4 -22 51 -40 103 -18 52 -37 103 -42 113 -9 18 -28 23 -28 7z"/>
<path d="M3610 1815 l0 -146 97 3 c66 2 98 7 101 16 3 9 -19 12 -87 12 l-91 0
0 55 0 55 81 0 c60 0 80 3 76 13 -2 8 -26 12 -68 13 -95 1 -90 -2 -87 52 l3
47 88 3 c121 4 111 22 -13 22 l-100 0 0 -145z"/>
<path d="M3862 1818 c4 -176 21 -188 28 -19 l5 119 78 -114 c123 -177 127
-177 127 17 0 116 -2 139 -15 139 -12 0 -15 -23 -17 -122 l-3 -123 -85 122
c-115 167 -121 166 -118 -19z"/>
<path d="M4140 1950 c0 -5 20 -10 45 -10 l44 0 3 -132 c2 -94 7 -133 16 -136
9 -3 12 28 12 132 l0 136 50 0 c28 0 50 5 50 10 0 6 -43 10 -110 10 -67 0
-110 -4 -110 -10z"/>
</g>
</svg>
